<?xml version="1.0" encoding="utf-8"?><!DOCTYPE svg PUBLIC "-//W3C//DTD SVG 1.1//EN" "http://www.w3.org/Graphics/SVG/1.1/DTD/svg11.dtd"><svg width="206" height="85" viewBox="0 0 206 85" xmlns="http://www.w3.org/2000/svg" xmlns:xlink="http://www.w3.org/1999/xlink"><svg width="17" height="12" viewBox="-4 -4 17 12" id="ico_atcmp_close" x="83" y="56" xmlns="http://www.w3.org/2000/svg"><path fill="#03CF5D" d="M0 0h9L4.5 4 0 0z"/></svg><svg width="17" height="12" viewBox="-4 -4 17 12" id="ico_atcmp_dim" x="100" y="56" xmlns="http://www.w3.org/2000/svg"><path fill="#C4C4C4" d="M0 0h9L4.5 4 0 0z"/></svg><svg width="17" height="12" viewBox="-4 -4 17 12" id="ico_atcmp_dim_open" x="117" y="56" xmlns="http://www.w3.org/2000/svg"><path fill="#C4C4C4" d="M0 4h9L4.5 0 0 4z"/></svg><svg width="17" height="12" viewBox="-4 -4 17 12" id="ico_atcmp_open" x="134" y="56" xmlns="http://www.w3.org/2000/svg"><path fill="#03CF5D" d="M0 4h9L4.5 0 0 4z"/></svg><svg width="27" height="19" viewBox="-4 -4 27 19" id="ico_keyboard" x="29" y="56" xmlns="http://www.w3.org/2000/svg"><path fill="#B4B4B4" d="M3 2h14v7H2V2h1zm12 6h1V7h-1v1zm0-2h1V5h-1v1zm0-2h1V3h-1v1zM8 3H7v1h1V3zm0 2H7v1h1V5zm2-2H9v1h1V3zm0 2H9v1h1V5zm2-2h-1v1h1V3zm0 2h-1v1h1V5zm2-2h-1v1h1V3zm0 2h-1v1h1V5zM5 8h9V7H5v1zm0-2h1V5H5v1zm0-2h1V3H5v1zM3 8h1V7H3v1zm0-2h1V5H3v1zm0-2h1V3H3v1zm15 7H0V0h19v11h-1zm0-10H1v9h17V1z"/></svg><svg width="27" height="19" viewBox="-4 -4 27 19" id="ico_keyboard_open" x="56" y="56" xmlns="http://www.w3.org/2000/svg"><path fill="#03CF5D" d="M3 2h14v7H2V2h1zm12 6h1V7h-1v1zm0-2h1V5h-1v1zm0-2h1V3h-1v1zM8 3H7v1h1V3zm0 2H7v1h1V5zm2-2H9v1h1V3zm0 2H9v1h1V5zm2-2h-1v1h1V3zm0 2h-1v1h1V5zm2-2h-1v1h1V3zm0 2h-1v1h1V5zM5 8h9V7H5v1zm0-2h1V5H5v1zm0-2h1V3H5v1zM3 8h1V7H3v1zm0-2h1V5H3v1zm0-2h1V3H3v1zm15 7H0V0h19v11h-1zm0-10H1v9h17V1z"/></svg><svg width="206" height="56" viewBox="-4 -4 206 56" id="ico_naver_logo" xmlns="http://www.w3.org/2000/svg"><defs><radialGradient cx="82.455%" cy="86.266%" fx="82.455%" fy="86.266%" r="113.357%" gradientTransform="matrix(.71945 0 0 1 .231 0)" id="ga"><stop stop-color="#FCF6D9" offset="0%"/><stop stop-color="#F8F0C9" offset="12.45%"/><stop stop-color="#EFE29E" offset="36.81%"/><stop stop-color="#E7D577" offset="56.4%"/><stop stop-color="#DCCB60" offset="77.78%"/><stop stop-color="#B6A466" offset="100%"/></radialGradient><radialGradient cx="-54.944%" cy="234.184%" fx="-54.944%" fy="234.184%" r="189.029%" gradientTransform="matrix(.71775 0 0 1 -.155 0)" id="gb"><stop stop-color="#FCF6D9" offset="0%"/><stop stop-color="#F8F0C9" offset="12.45%"/><stop stop-color="#EFE29E" offset="36.81%"/><stop stop-color="#E7D577" offset="56.4%"/><stop stop-color="#DCCB60" offset="77.78%"/><stop stop-color="#B6A466" offset="100%"/></radialGradient><linearGradient x1="-5.171%" y1="9.468%" x2="93.78%" y2="99.203%" id="gc"><stop stop-color="#DDDDE8" offset="15.22%"/><stop stop-color="#B8B8C3" offset="75.34%"/><stop stop-color="#CFCFD6" offset="100%"/></linearGradient><linearGradient x1="51.078%" y1="44.148%" x2="31.731%" y2="72.906%" id="gd"><stop stop-color="#E1E1EA" offset="0%"/><stop stop-color="#D5D5DF" offset="20.13%"/><stop stop-color="#BDBDC8" offset="69.58%"/><stop stop-color="#B4B4C0" offset="100%"/></linearGradient><linearGradient x1="-15.136%" y1="55.128%" x2="58.758%" y2="47.2%" id="ge"><stop stop-color="#958D60" stop-opacity=".4" offset="0%"/><stop stop-color="#958D60" offset="100%"/></linearGradient><radialGradient cx="60.035%" cy="5.418%" fx="60.035%" fy="5.418%" r="84.203%" gradientTransform="matrix(.81715 0 0 1 .11 0)" id="gf"><stop stop-color="#FCF6D9" offset="0%"/><stop stop-color="#F8F0C9" offset="13.24%"/><stop stop-color="#EFE29E" offset="39.17%"/><stop stop-color="#E7D577" offset="60%"/><stop stop-color="#C4AC54" offset="90%"/></radialGradient><radialGradient cx="41.976%" cy="-12.03%" fx="41.976%" fy="-12.03%" r="87.755%" gradientTransform="matrix(.81715 0 0 1 .077 0)" id="gg"><stop stop-color="#D4B94E" offset="0%"/><stop stop-color="#E0CD7F" stop-opacity=".785" offset="37.18%"/><stop stop-color="#EDE2B6" stop-opacity=".521" offset="58.34%"/><stop stop-color="#F7F2DE" stop-opacity=".292" offset="76.63%"/><stop stop-color="#FDFBF6" stop-opacity=".111" offset="91.12%"/><stop stop-color="#FFF" stop-opacity="0" offset="100%"/></radialGradient><linearGradient x1=".845%" y1="49.325%" x2="100.726%" y2="51.818%" id="gh"><stop stop-color="#00215E" offset=".343%"/><stop offset="100%"/></linearGradient><radialGradient cx="74.207%" cy="59.843%" fx="74.207%" fy="59.843%" r="65.895%" gradientTransform="scale(.5886 1) rotate(.835 1.001 36.167)" id="gi"><stop stop-color="#FFAE15" offset="0%"/><stop stop-color="#FFAD14" offset="1.421%"/><stop stop-color="#FF9A0A" offset="32.95%"/><stop stop-color="#FF8F04" offset="65.41%"/><stop stop-color="#FF8B02" offset="100%"/></radialGradient><linearGradient x1="46.778%" y1="51.638%" x2="24.099%" y2="145.093%" id="gj"><stop stop-color="#7B4917" stop-opacity="0" offset="0%"/><stop stop-color="#7B4917" offset="80%"/></linearGradient><linearGradient x1="47.153%" y1="56.478%" x2="99.187%" y2="19.551%" id="gk"><stop stop-color="#7B4917" stop-opacity="0" offset="0%"/><stop stop-color="#7B4917" offset="80%"/></linearGradient><radialGradient cx="51.422%" cy="40.776%" fx="51.422%" fy="40.776%" r="71.933%" gradientTransform="matrix(.6524 .01913 -.01248 .99982 .184 -.01)" id="gl"><stop stop-color="#FFF" stop-opacity=".7" offset="0%"/><stop stop-color="#FFF" stop-opacity="0" offset="100%"/></radialGradient><radialGradient cx="9.681%" cy="-7.843%" fx="9.681%" fy="-7.843%" r="108.251%" gradientTransform="matrix(1 0 0 .98413 0 -.001)" id="gm"><stop stop-color="#D4B94E" offset="20%"/><stop stop-color="#D6BD57" stop-opacity=".889" offset="28.88%"/><stop stop-color="#DCC66F" stop-opacity=".708" offset="43.37%"/><stop stop-color="#E6D697" stop-opacity=".479" offset="61.66%"/><stop stop-color="#F3EBCE" stop-opacity=".215" offset="82.82%"/><stop stop-color="#FFF" stop-opacity="0" offset="100%"/></radialGradient><radialGradient cx="6.728%" cy="63.335%" fx="6.728%" fy="63.335%" r="72.309%" gradientTransform="matrix(1 0 0 .89464 0 .067)" id="gn"><stop stop-color="#D4B94E" offset="12.95%"/><stop stop-color="#D4B94E" stop-opacity="0" offset="100%"/></radialGradient><radialGradient cx="68.829%" cy="-11.505%" fx="68.829%" fy="-11.505%" r="107.754%" gradientTransform="matrix(.63293 0 0 1 .253 0)" id="go"><stop stop-color="#E7D577" offset="0%"/><stop stop-color="#E7D577" offset="75.67%"/><stop stop-color="#DCCB60" offset="93.33%"/><stop stop-color="#D6C25C" offset="100%"/></radialGradient><radialGradient cx="52.865%" cy="37.851%" fx="52.865%" fy="37.851%" r="70.883%" gradientTransform="scale(.67653 1) rotate(1.112 .655 13.397)" id="gp"><stop stop-color="#FFF" stop-opacity=".7" offset="0%"/><stop stop-color="#FFF" stop-opacity="0" offset="100%"/></radialGradient><linearGradient x1=".009%" y1="50.069%" x2="100.257%" y2="50.069%" id="gq"><stop stop-color="#958D60" stop-opacity=".7" offset="0%"/><stop stop-color="#958D60" stop-opacity=".9" offset="100%"/></linearGradient><linearGradient x1="13.049%" y1="20.501%" x2="69.641%" y2="53.397%" id="gr"><stop stop-color="#D4B94E" offset="20%"/><stop stop-color="#D6BD57" stop-opacity=".889" offset="28.88%"/><stop stop-color="#DCC66F" stop-opacity=".708" offset="43.37%"/><stop stop-color="#E6D697" stop-opacity=".479" offset="61.66%"/><stop stop-color="#F3EBCE" stop-opacity=".215" offset="82.82%"/><stop stop-color="#FFF" stop-opacity="0" offset="100%"/></linearGradient><linearGradient x1="46.466%" y1="-.56%" x2="57.213%" y2="108.766%" id="gs"><stop stop-color="#E4E4E6" offset="0%"/><stop stop-color="#BEBEBF" offset="100%"/></linearGradient><radialGradient cx="54.471%" cy="103.124%" fx="54.471%" fy="103.124%" r="149.247%" gradientTransform="matrix(.50727 .30263 -.16107 .9531 .434 -.116)" id="gt"><stop stop-color="#FFF" offset="0%"/><stop stop-color="#FFF" offset="100%"/></radialGradient><linearGradient x1=".058%" y1="50.118%" x2="100.084%" y2="50.118%" id="gu"><stop offset="0%"/><stop stop-color="#101112" offset="11.57%"/><stop stop-color="#45474B" offset="52.04%"/><stop stop-color="#595C61" offset="71.52%"/><stop stop-color="#505156" offset="79.42%"/><stop stop-color="#37353A" offset="93.17%"/><stop stop-color="#292529" offset="100%"/></linearGradient><linearGradient x1="-4.533%" y1="9.57%" x2="94.831%" y2="99.382%" id="gv"><stop stop-color="#DDDDE8" offset="15.22%"/><stop stop-color="#B8B8C3" offset="75.34%"/><stop stop-color="#CFCFD6" offset="100%"/></linearGradient><linearGradient x1="44.337%" y1="51.555%" x2="27.688%" y2="78.228%" id="gw"><stop stop-color="#ECECEF" stop-opacity="0" offset="0%"/><stop stop-color="#C1C1CE" offset="100%"/></linearGradient></defs><g fill="none" fill-rule="evenodd"><g fill="#03CF5D"><path d="M75.6 42l-8.4-13v13H58V16h9l8.4 12.9V16h9.2v26z"/><path d="M108.4 42h9.6l-9.4-26H97.4L88 42h9.6l1.1-3.8h8.7l1 3.8zm-8-9.7l2.7-9.3 2.7 9.3h-5.4z" fill-rule="nonzero"/><path d="M133.9 42l9.4-26H134l-5.3 17.3-5.3-17.3H114l9.4 26z"/><path d="M172 42h8.7v-6.874h2.5L187.7 42h9.6l-6.6-8.966c3.1-1.295 4.8-3.984 4.8-7.57 0-3.387-1.2-5.778-3.6-7.372-2.1-1.395-4.8-2.092-8.8-2.092H172v26zm13.9-14.544c-.6.498-1.4.697-2.1.697h-3.4v-5.08h3.4c.8 0 1.6.199 2.2.697.5.498.7 1.096.7 1.893 0 .697-.3 1.394-.8 1.793z" fill-rule="nonzero"/><path d="M168.1 42v-6.5h-12.3v-3.4H167v-6.2h-11.2v-3.4h12V16H147v26z"/></g><g opacity=".2"><path d="M44.8 30.2c-1.7-2.3-4.1-4.1-5.8-5-7-3.7-16-5.9-22.9-2.2-10.1 5.5-7.7 15 .8 20.5.8.5 1.1.8 1.6 1 0 .3.2.4.5.6.7.5 2.1 1.1 3 .9.2.1.4.1.6.2 7.2 2.6 14.7 1.6 19.6-2.3 2.9-2.3 4.8-4.7 4.9-8.3-.1-2.2-1.9-4.9-2.3-5.4z" fill="#C5C5C5"/><path d="M45.4 30.5c-.9-1.3-4.8-5.3-6.5-6.2-7-3.7-15.6-5.9-22.6-2.2-10.1 5.4-8 14.9.4 20.5.8.5 1.2.8 1.9 1.1 0 .2.1.4.3.5.7.5 2 1.1 2.8.9.1 0 .6.2.7.3C29.7 48.1 37 47 42 43c2.9-2.3 4.9-4.7 4.9-8.3-.1-1.4-1.3-4-1.5-4.2z" fill="#707070"/></g><path d="M46.8 34.2c.1-4.3-4.9-8.9-7.9-10.5-7-3.7-15.4-5.9-22.4-2.2-10.1 5.4-8.5 15 .1 20.5 9.5 6.1 19 5.5 25.4.5 2.8-2.2 4.8-4.6 4.8-8.3z" fill="url(#ga)"/><path d="M24.4 20.2c4.2 0 8.9 1.3 14 4 5 2.7 7.6 7.5 7.6 9.9 0 3-1.4 5.2-4.7 7.8-3.2 2.5-6.9 3.8-11.1 3.8-4.4 0-9-1.5-13.3-4.3-4.4-2.9-6.8-6.9-6.7-10.6.1-3.5 2.4-6.6 6.5-8.7 2.3-1.2 5-1.9 7.7-1.9zm0-.7c-2.8 0-5.5.6-8 1.9-10.1 5.5-8.5 15.1.1 20.6 4.7 3.1 9.4 4.4 13.8 4.4s8.4-1.4 11.6-3.9c2.9-2.3 4.9-4.7 5-8.4.1-4.3-4.9-8.9-7.9-10.5-4.7-2.3-9.7-4.1-14.6-4.1z" fill="url(#gb)" fill-rule="nonzero" opacity=".2"/><path d="M41.8 42.3c-6.3 5-15.9 5.6-25.4-.5-4.5-2.9-7-7-7-10.9-.1 4 2.5 8.1 7 11.1 9.5 6.1 19 5.5 25.4.5 2.9-2.3 4.9-4.7 5-8.4V34c-.2 3.7-2.1 6.1-5 8.3z" fill="#B6A466" opacity=".6"/><path d="M14.8 12.3C9.4 9.5 4.1 4.7 2 .6c-.9-1.7-3 .6-.5 5.8-.4.2-.6 1.8.1 3.7.3.7.7 1.4 1.2 2.3-.1 3.4 3.4 8 6.9 10.9 2.1 1.7 4.2 2.9 6 3.5 1.6.5 3.5.8 4.8.4 0 0 1.5-.3 2-1.9 1-3.5-.3-9.2-7.7-13z" fill="url(#gc)" transform="translate(16)"/><path d="M14.4 12.2C7.3 8.6 4 5.1 1.9.8 1-1-.5 2 1.8 7c-.7.9-.1 4 2.1 7.1.8 3.4 2.8 6.3 7 9.9 4 3.4 9.2 4.6 11 1.4 2.1-3.1.2-9.4-7.5-13.2z" fill="url(#gd)" opacity=".8" transform="translate(16)"/><path d="M14.2 26.9c-1.4-.8-.5-2.9-2.5-1-3.4 3.8-2.1 7.8-.7 10.4 3 2 13 2.3 14.3-4-7.5-1.7-10.6-4.9-11.1-5.4z" fill="url(#ge)"/><path d="M37.8 33.8c4.5-3.9 1.6-11.7.5-13.5-.6-1-1.4-2-2.4-2.9-6.4-5.4-12.7-3.7-16.1-1.6-1.6.9-2.9 2.4-3.9 3.8-2.8 5.9-1.6 12-1.6 12 7.9 4.5 16.7 4.2 23.5 2.2z" fill="url(#gf)"/><path d="M15.7 19.8c-2.5 5.5-1.7 11.3-1.6 11.8.1.2.2.3.3.3-.1-.9-.8-6.1 1.4-11.3.1-.3.3-.5.5-.8.8-1.1 1.8-2.2 3-3 .4-.3.8-.5 1.2-.7 3.3-1.6 8.7-2.8 14.2 1.4.7.5 1.4 1.1 1.9 1.8.2.2.3.4.5.6.5.6 1 1.6 1.4 2.8.8 2.4 1.8 6.8-.2 9.8h.1c2.8-3.6 1-9.3 0-11.6-.2-.3-.3-.6-.5-.8-.6-.9-1.023-1.8-1.923-2.6-6.882-5.802-13.068-3.582-16.468-1.582-1.6.9-2.809 2.482-3.809 3.882z" opacity=".4" fill="#D6C486"/><path d="M23.8 20.8c4.5-3.9 1.6-11.7.5-13.5-.6-1-1.4-2-2.4-2.9C15.5-1 9.2.7 5.8 2.8c-1.6.9-2.9 2.4-3.9 3.8-2.8 5.9-1.6 12-1.6 12 7.9 4.5 16.7 4.2 23.5 2.2z" opacity=".3" transform="translate(14 13)" fill="url(#gg)"/><path d="M45.3 29.6c-.2-.3-.6 0-.9.3-1.8 1.8-5 6.2-12.8 8.5-1.6.5-3.4 1-5.1 1.5l-.6-.5c-.1-.1-.4-.1-.5-.1l-2.6 1.1c-.3.1-.3.4-.2.5.2.2.2.3.2.3-.9.3-1.6.7-2.5 1.2-.9.5-.9.9-.8 1 .5.4 2.8 1.3 3.3 1.5-.2-.1 0-.6.4-.8.4-.3 1-.6 1.5-.8l.4.4c.2.2.4.2.6.2l3-1c.2-.1.3-.4.1-.6-.2-.2-.6-.3-.6-.3.7-.3 2.8-1 4.1-1.4 7-2 9.6-4.7 12.1-7.5.6-.7 1.3-1.7 1.5-1.6.1-.6-.2-1.2-.6-1.9z" fill="url(#gh)" opacity=".2"/><path d="M44.6 29.1c-1.7 1.9-5 6.7-12.6 8.9-4.7 1.3-9.9 3.3-12.6 5.1-.3.2-.2.7-.1.8.7.6 2.3 1.2 2.9.9-.2-.1.3-.6.6-.8 2.4-1.5 6.2-2.9 10.2-4 8.3-2.5 11.7-7.5 12.8-8.9.2-.2.2-.2.4-.2.1-.4-.1-.7-.7-1.6-.4-.2-.7-.5-.9-.2z" fill="url(#gi)"/><path d="M21 42.8c-.1-.1-.1-.3-.1-.5-.5.3-1 .6-1.5.8-.3.2-.2.7-.1.8.7.6 2.3 1.2 2.9.9-.2-.1.3-.6.6-.8.3-.2.4-.3.8-.5-1-.1-2.3-.4-2.6-.7z" fill="url(#gj)"/><path d="M2.3 1.3c-.1-.2-.5-.5-.7-.2-.3.3-.6.7-1 1.1.2-.1.4.1.6.3.6.5.8.7 1 1.1.2-.2.3-.4.4-.5.2-.2.3-.2.5-.2.1-.4-.1-.7-.8-1.6z" opacity=".4" transform="translate(43 28)" fill="url(#gk)"/><path d="M36.8 19.9c-1.4-2.5-6.1-5.7-12.3-4.1-4.6 1.1-4.7 3.4-4.7 3.6.5 1.8 2.9 5.4 5.5 6.7 5.4 2.4 14.4-1.5 11.5-6.2z" fill="url(#gl)"/><path d="M19.7 23.8s3-4.5 7.2-5.9l1.6.1c.3 6.6-2.9 9-6.7 9.1-2.2 0-2.7-1.2-2.1-3.3z" fill="url(#gm)" opacity=".5"/><path d="M29 18.1c3.1 1.7 5.5 4.8 6 6.9 0 0 .3 1.2.5 2.7 0 0 5.4-2.3 2-7.7-3.4-5.5-8.5-1.9-8.5-1.9z" fill="url(#gn)" opacity=".6"/><path d="M30 17.5c.2.6-.5 1.2-1.7 1.2-1.1 0-1.9-.6-1.9-1.2s.6-1.1 1.7-1.1c.9 0 1.7.4 1.9 1.1z" fill="#AA955E"/><path d="M4 1.1c.2.6-.5 1.2-1.7 1.2C1.2 2.3.4 1.7.4 1.1S1 0 2.1 0C3.1.1 3.8.5 4 1.1z" fill="url(#go)" transform="translate(26 16)"/><path d="M29.6 16.7c-.2-.3-.9-.8-1.7-.6-.7.2-.7.5-.7.5.1.3.4.8.8 1 .7.4 2-.2 1.6-.9z" fill="url(#gp)"/><path d="M14.1 26.2c1.9 4.5 10.8 6.7 10.8 6.7 2-5.8-3.8-11-5.7-13.3-.9-1.1-1-2.2-.8-2.9-.9.8-1.7 1.8-2.4 2.8-1.3 2.3-1.7 4.7-1.9 6.7z" fill="url(#gq)" opacity=".7"/><path d="M15.9 19.5c-.8 1.7-1.3 3.5-1.5 5.1.8 1.7 2.8 3.8 3.9 4 3.3.5 7.6-10.4 7.7-13.7 0-.5-.1-.8-.3-1-2.4.2-4.5 1-6 1.9-1.6.8-2.8 2.3-3.8 3.7z" fill="url(#gr)" opacity=".7"/><path d="M46.1 30.5c.1.2.1.3 0 .4-.2 0-.2 0-.4.2-1.1 1.4-4.6 6.5-12.8 8.9-4 1.2-7.7 2.5-10.2 4-.3.2-.8.6-.6.8-.1.2-.3.2-.6.2 0 0-.2-.4.7-1 .9-.6 4.7-2.5 10.5-4.1 0 0 8-2 12.7-8.8 0-.1.4-.9.7-.6z" fill="#D17111"/><path d="M25.9 40.1l1.8 1.8-2 .7-1.8-1.8 2-.7zm0-.9h-.3l-3 .8c-.1.1-.1.5 0 .6l2.5 2.7c.1.1.2.2.3.2h.3l3-1.1c.1-.1.2-.4 0-.6l-2.6-2.5c.1 0 0-.1-.2-.1z" fill="#5F6672" fill-rule="nonzero"/><path d="M3.9 1.8l1.7 1.8-1.9.7-1.8-1.8 2-.7zm0-.9h-.3L.6 2c-.1.1-.1.2 0 .4l2.5 2.7c.1.1.2.2.3.2h.3l3-1.1c.1-.1.1-.2 0-.4L4.2 1.1c.1-.1-.1-.2-.3-.2z" fill="url(#gs)" fill-rule="nonzero" transform="translate(22 38)"/><path d="M6.5 3.6c.2.2.5.4.2.5l-2.8 1h-.3c-.1 0-.2-.1-.3-.2L.9 2.4c-.2-.2 0-.3.1-.4l.2-.1c-.1 0-.1.3 0 .5l2.1 2.3c.1.1.2.1.3.2h.2L6.2 4c.5-.2.3-.4.3-.4z" fill="url(#gt)" transform="translate(22 38)"/><path d="M13.2 28.8c0 4.4 7.8 9.8 17.6 8.8 6.1-.6 10.5-4.5 10-8.3-.3-2.4-.7-4.2-1-4.3.1 3.2-3.3 6.8-8.9 7.2-7.4.5-15.5-3.6-16.8-7.2.1 0-.9 1-.9 3.8z" fill="url(#gu)"/><g><path d="M16.4 12.7C10.6 9.8 4.9 4.9 2.4.6c-1-1.8-3.2.7-.4 6.1-.5.3-.7 1.9.2 3.9.3.8.8 1.6 1.3 2.4 0 3.6 3.8 8.4 7.5 11.4 2.2 1.8 4.5 3 6.5 3.6 1.7.5 3.7.8 5.1.3 0 0 1.6-.4 2-2 1.1-3.6-.4-9.7-8.2-13.6z" fill="url(#gv)" transform="translate(0 7)"/><g opacity=".6"><path d="M11.6 28.2c-1.5-1.1-2.9-2.4-4.1-3.6-1.2-1.3-2.4-2.8-3.8-4.4 0 1.8.9 3.9 2.3 5.9 1.4 2 3.3 4 5.2 5.5 2.2 1.8 4.5 3 6.5 3.6.1-.2-1.2-3.3-6.1-7z" fill="#CECED5"/><path d="M4.9 21.8c.9 1.1 1.7 2 2.5 2.9l.7.7c.6.6 1.2 1.1 1.9 1.7.6.5 1.3 1 1.9 1.5 1.5 1.3 1.6 1.9 2.4 2.9-1.5-.6-1.6-.4-3.2-1.5-.4-.3-.7-.6-1.1-.9-.6-.5-1.2-1.1-1.7-1.6-.6-.6-1.2-1.2-1.6-1.9-.1-.1-.2-.3-.3-.4-.9-1.4-1.4-2.6-1.5-3.4" fill="#FDFDFF"/></g><g opacity=".8"><path d="M22.7 35.5s-.2-.7-.6-1.6c-.8-1.8-2.5-4.9-5.8-6.9-3.6-2.2-6.5-4.4-9-6.7C5 18 3.1 15.8 2.1 13.9c-.5.2-.7 1.9.2 3.9.3.7.8 1.5 1.3 2.4.5.7 4.6 5.7 7.7 7.9 2.9 2 4.7 4.4 5.6 5.8.4.7.7 1.1.7 1.2 1.8.6 3.7.8 5.1.4z" fill="#CECED5"/><path d="M2.8 14.9c.8 1.5 2.5 3.4 4.7 5.4.3.3.7.6 1 .9 1.9 1.7 4.2 3.4 6.6 5 .7.5 1.3 1 1.9 1.5 1.9 1.8 2.6 3.5 2.9 4.3.2.6.2 1 .1 1-1.2.1-2.6-.2-4.1-.7-.1-.1-.3-.4-.6-.9-.3-.4-.6-.8-1.1-1.3-.9-1-2.1-2.3-3.7-3.4-1.1-.8-2.3-2-3.5-3.2C5.6 22 4.4 20.4 4 20c-.2-.3-.5-.7-.6-1l-.5-1c-.6-1.6-.6-3.1-.1-3.1z" fill="#F6F6F9"/></g><path d="M1.7 8.3c.1-.2.3-.3.4-.3.2 0 .5.2.7.4.2.4.4.7.6 1 1.1 1.6 2.5 3.3 4.7 5.2 2.2 2 5.1 3.8 7.7 5.1 1.2.6 2.4 1.3 3.4 2 2.9 1.9 4.4 4.4 5 5.6.8 1.7.4 3.4-.3 4.4-.4.8-1.2 1.1-1.7 1.1-.6-.6-3.4-4.7-6.8-7.4-3-1.8-5.6-4-7.8-6-1.7-1.6-3.1-3.2-4.1-4.7-.3-.4-.5-.8-.7-1.2-.6-1.2-1-2.4-1.1-3.4-.2-.6-.2-1.4 0-1.8z" fill="#E4E4E7"/><path d="M2.6 9.2c.1-.1.2-.1.4 0 .1.1.3.3.5.6.2.2.4.5.6.7C5.2 12 6 13 8.3 15.1c1.9 1.7 4.5 3.3 6.9 4.5 1.1.6 2.1 1.1 3.1 1.6 2.3 1.2 4.1 3.2 4.9 4.6 1 1.7.9 3.3-.2 3.4-.5.3-1.2.2-1.8 0-1.4-.8-4.2-3.6-7.1-5.8-2.3-1.6-4.6-3.4-6.3-5-1.4-1.3-2.6-2.7-3.4-3.8-.2-.3-.4-.7-.6-1-.5-1-.9-1.9-1-2.8-.4-.7-.4-1.3-.2-1.6z" fill="#F9F9FC"/><g opacity=".5"><path d="M16 19.6c-5.7-2.9-11.1-7.7-13.5-12-1-1.8-3.2.7-.4 6.1-.5.3-.7 1.9.2 3.9.2.8.7 1.6 1.2 2.4 0 3.6 3.8 8.4 7.5 11.4 2.2 1.8 4.5 3 6.5 3.6 1.7.5 3.7.8 5.1.3 0 0 1.6-.4 2-2 1.2-3.8-.5-9.7-8.6-13.7z" fill="#9B9BB1"/><path d="M11.6 30.5c2.8 1.2-1.5-3.1-2.4-4.1 1 .8 5.8 4.3 8.4 3.9 1.6-.2-3.9-4.8-6.4-7.3 1 .7 6.9 5 10 6.1 3.1 1.1 4.1-2.5.2-6.7-1.2-1-2.8-2.2-4.5-3-5.5-2.4-10.7-6.2-13.5-10-1.6-2.3-3.3.4-.3 5.8-.6-.1-.9 1-.2 3 .4 1 1 2.2 1.7 3.2-.4.8 1.2 3.9 1.3 4.1 1.1 2.2 4.9 4.6 5.7 5z" fill="#BDBDD0"/><path d="M10.8 29.4c2.2 1-1.8-3.1-3.2-4.7 1.8 1.8 5.6 3.9 7.6 3.8 1.8-.1-3.6-4.1-8-8.7 1.2 1.4 8.1 5.7 12.2 7.3 3.3 1.2 4.7-1.8 1.7-4.4-1.1-.8-2.6-1.9-4-2.6C12.6 18 8.7 16 5.5 12.6c-2.9-2.8-3.4-.2-.1 5.4-.9-.8-1.5-.8-1 1.2.4 1.6 1.4 3.3 2.5 4.9-1.4-1.3-.2 1.4.2 2 1 1.7 2.9 2.9 3.7 3.3z" fill="#E6E6EC"/><path d="M10.4 28.9c2 1-1.9-3.1-3.6-5 2.3 2.3 5.5 3.7 7.3 3.7 1.9 0-3.4-3.7-8.9-9.4 1.3 1.7 8.8 6 13.2 7.9 3.4 1.3 5-1.5 2.5-3.3-1.1-.7-2.6-1.8-3.7-2.4-4.3-1.9-7.4-2.9-10.8-6-3.6-3.3-3.5-.6-.1 4.9-1-1.1-1.8-1.7-1.4.4.4 1.9 1.6 3.9 3 5.8-1.9-2.4-.9.2-.3 1 1 1.4 1.9 2 2.8 2.4z" fill="#FFF"/></g><path d="M16.5 27.9c-1.8-.6-4-1.7-6.1-3.4-3.6-2.9-6.5-8.9-6.4-12.4-.5-.7 10.4-1.1 15 1.7 10.1 6.4 8.7 17.9-2.5 14.1z" fill="url(#gw)" transform="translate(0 7)"/></g></g></svg><svg width="29" height="29" viewBox="-4 -4 29 29" id="ico_search" y="56" xmlns="http://www.w3.org/2000/svg"><path fill="#fff" d="M9.5 0C7.2 0 4.9.8 3.2 2.3c-1 .9-1.8 1.9-2.4 3.2C.3 6.6 0 7.9 0 9.2v.3c0 1.2.2 2.3.6 3.4.5 1.2 1.2 2.3 2.1 3.3 1 1 2.3 1.8 3.6 2.3.6.2 1.2-.2 1.4-.8.1-.5-.2-1-.7-1.2-1.3-.4-2.4-1.2-3.3-2.3-1.1-1.3-1.7-3-1.7-4.8 0-1.7.6-3.4 1.7-4.7C5.1 3 7.2 2.1 9.3 2.1c1.1 0 2.3.3 3.3.8 1.1.5 2 1.3 2.7 2.3s1.1 2.1 1.3 3.3c.3 2.3-.5 4.6-2.1 6.3-.4.4-.4 1 0 1.3l4.6 4.6c.2.2.5.3.7.3.3 0 .5-.1.7-.3.4-.4.4-1.1 0-1.5l-3.8-3.8.1-.1c1.3-1.7 1.9-3.7 1.9-5.8 0-1.3-.3-2.6-.8-3.8s-1.3-2.3-2.3-3.2C14.1.9 11.8 0 9.5 0zM9 17.5c0 .8.7 1.5 1.5 1.5s1.5-.7 1.5-1.5-.7-1.5-1.5-1.5-1.5.7-1.5 1.5"/></svg></svg>